<svg xmlns="http://www.w3.org/2000/svg" viewBox="0 0 54.77 48.5">
    <g id="Layer_2" data-name="Layer 2">
        <g id="_1" data-name=" 1">
            <path class="cls-1"
                d="M34.35,48.5h-29a.93.93,0,0,1-.93-.93V41.76A15.48,15.48,0,0,1,11.08,29a.93.93,0,0,1,1.06,1.53,13.62,13.62,0,0,0-5.84,11.2v4.88H33.42V41.76a13.5,13.5,0,0,0-6-11.19.93.93,0,0,1,1-1.54,15.36,15.36,0,0,1,6.8,12.73v5.81A.93.93,0,0,1,34.35,48.5Z" />
            <path class="cls-1"
                d="M19.86,28.91a7.65,7.65,0,1,1,7.65-7.65A7.66,7.66,0,0,1,19.86,28.91Zm0-13.44a5.79,5.79,0,1,0,5.79,5.79A5.79,5.79,0,0,0,19.86,15.47Z" />
            <path class="cls-1"
                d="M37.84,26a.93.93,0,0,1-.93-.93V21.17H31.63a.93.93,0,0,1-.93-.89L29.82,2.16a.93.93,0,0,1,.93-1h7.18a.93.93,0,1,1,0,1.86h-6.2l.79,16.26h5.32a.93.93,0,0,1,.93.93v3.24l6.93-4a.93.93,0,0,1,.47-.13h5.07L52.81,3.05H47.32a.93.93,0,0,1,0-1.86h6.52a.93.93,0,0,1,.93,1L53,20.33a.93.93,0,0,1-.93.84H46.42l-8.12,4.73A.93.93,0,0,1,37.84,26Z" />
            <path class="cls-1"
                d="M46.56,16.71a1.79,1.79,0,0,1-1.05-.35L42.3,14l-3.21,2.33a1.79,1.79,0,0,1-2.76-2l1.23-3.77L34.34,8.26A1.79,1.79,0,0,1,35.4,5h4l1.23-3.77a1.79,1.79,0,0,1,3.41,0L45.23,5h4a1.79,1.79,0,0,1,1.05,3.24L47,10.59l1.23,3.77a1.77,1.77,0,0,1-.65,2A1.79,1.79,0,0,1,46.56,16.71Zm-4.26-4.56a1.79,1.79,0,0,1,1.05.34l3.08,2.24-1.18-3.62a1.79,1.79,0,0,1,.65-2L49,6.87h-3.8a1.79,1.79,0,0,1-1.71-1.24L42.3,2,41.12,5.64a1.79,1.79,0,0,1-1.71,1.24h-3.8l3.08,2.24a1.79,1.79,0,0,1,.65,2l-1.17,3.62,3.08-2.23A1.79,1.79,0,0,1,42.29,12.15Z" />
            <path class="cls-1" d="M49.58,48.5H.93a.93.93,0,1,1,0-1.86H49.58a.93.93,0,0,1,0,1.86Z" />
            <path class="cls-1"
                d="M13.14,48.5a.93.93,0,0,1-.93-.93V39.05a.93.93,0,1,1,1.86,0v8.52A.93.93,0,0,1,13.14,48.5Z" />
            <path class="cls-1"
                d="M26.58,48.5a.93.93,0,0,1-.93-.93V39.05a.93.93,0,1,1,1.86,0v8.52A.93.93,0,0,1,26.58,48.5Z" />
        </g>
    </g>
</svg>