<svg xmlns="http://www.w3.org/2000/svg" viewBox="0 0 55.21 47.67">
    <g id="Layer_2" data-name="Layer 2">
        <g id="_1" data-name=" 1">
            <path class="cls-1"
                d="M16.6,27.29a.93.93,0,0,1-.86-.58L5.41,1.28A.93.93,0,0,1,6.27,0h10.5a.93.93,0,0,1,.87.61l6.89,18.51a.93.93,0,0,1-1.75.65L16.13,1.86H7.65L17.47,26a.93.93,0,0,1-.86,1.28Z" />
            <path class="cls-1"
                d="M38.61,27.29A.93.93,0,0,1,37.74,26L47.56,1.86H39.08L32.41,19.77a.93.93,0,0,1-1.75-.65L37.56.61A.93.93,0,0,1,38.44,0h10.5a.93.93,0,0,1,.86,1.28L39.47,26.71A.93.93,0,0,1,38.61,27.29Z" />
            <path class="cls-1" d="M38.44,1.86H16.77a.93.93,0,1,1,0-1.86H38.44a.93.93,0,1,1,0,1.86Z" />
            <path class="cls-1" d="M34.81,10.31H20.4a.93.93,0,0,1,0-1.86H34.81a.93.93,0,1,1,0,1.86Z" />
            <path class="cls-1"
                d="M20.42,47.67a2.72,2.72,0,0,1-1.6-.53,2.69,2.69,0,0,1-1-3.05l1.94-6a.86.86,0,0,0-.31-1l-5.07-3.68A2.73,2.73,0,0,1,16,28.54h6.26a.86.86,0,0,0,.82-.6L25,22a2.73,2.73,0,0,1,5.19,0l1.94,6a.86.86,0,0,0,.82.6h6.26a2.73,2.73,0,0,1,1.6,4.94l-5.07,3.68a.86.86,0,0,0-.32,1l1.94,6a2.73,2.73,0,0,1-4.2,3.05l-5.07-3.68a.86.86,0,0,0-1,0L22,47.14A2.72,2.72,0,0,1,20.42,47.67ZM16,30.4A.87.87,0,0,0,15.48,32l5.07,3.68a2.72,2.72,0,0,1,1,3.05l-1.94,6a.87.87,0,0,0,1.33,1L26,41.95a2.72,2.72,0,0,1,3.21,0l5.07,3.68a.87.87,0,0,0,1.33-1l-1.94-6a2.72,2.72,0,0,1,1-3.05L39.73,32a.87.87,0,0,0-.51-1.57H33a2.72,2.72,0,0,1-2.6-1.89l-1.94-6a.87.87,0,0,0-1.65,0l-1.94,6a2.72,2.72,0,0,1-2.6,1.89Z" />
            <path class="cls-1"
                d="M50.33,36.67a2.06,2.06,0,0,1-1.22-.4l-3.2-2.33a.2.2,0,0,0-.24,0l-3.2,2.33a2.06,2.06,0,0,1-2.48,0,.93.93,0,1,1,1.13-1.48.19.19,0,0,0,.25,0l3.2-2.33a2.07,2.07,0,0,1,2.43,0l3.2,2.33a.2.2,0,0,0,.32-.23L49.3,30.77a2.06,2.06,0,0,1,.75-2.31l3.2-2.33a.21.21,0,0,0-.12-.37h-4a2.06,2.06,0,0,1-2-1.43L46,20.57a.2.2,0,0,0-.39,0l-1.22,3.76a2.07,2.07,0,0,1-.51.83.93.93,0,1,1-1.31-1.32.2.2,0,0,0,0-.08L43.83,20a2.07,2.07,0,0,1,3.93,0L49,23.76a.2.2,0,0,0,.2.14h4a2.07,2.07,0,0,1,1.22,3.74L51.15,30a.2.2,0,0,0-.07.23L52.3,34a2,2,0,0,1-.75,2.31A2.06,2.06,0,0,1,50.33,36.67Z" />
            <path class="cls-1"
                d="M4.88,36.67a2.06,2.06,0,0,1-1.22-.4A2,2,0,0,1,2.91,34l1.22-3.76A.2.2,0,0,0,4.06,30L.86,27.64A2.07,2.07,0,0,1,2.07,23.9H6a.2.2,0,0,0,.2-.14L7.45,20a2.07,2.07,0,0,1,3.93,0l1.22,3.76a.21.21,0,0,0,.07.1.93.93,0,1,1-1.13,1.48,2.05,2.05,0,0,1-.71-1L9.61,20.57a.2.2,0,0,0-.39,0L8,24.33a2.06,2.06,0,0,1-2,1.43h-4a.21.21,0,0,0-.12.37l3.2,2.33a2.06,2.06,0,0,1,.75,2.31L4.68,34.54a.2.2,0,0,0,.32.23l3.2-2.33a2.07,2.07,0,0,1,2.43,0l3.2,2.33a.18.18,0,0,0,.22,0A.93.93,0,1,1,15,36.38a2,2,0,0,1-2.26-.11l-3.2-2.33a.2.2,0,0,0-.24,0l-3.2,2.33A2.06,2.06,0,0,1,4.88,36.67Z" />
            <path class="cls-1"
                d="M35.41,22.51a.93.93,0,0,1-.87-1.26L39.21,8.74A.93.93,0,0,1,41,9.39L36.28,21.91A.93.93,0,0,1,35.41,22.51Z" />
            <path class="cls-1"
                d="M19.8,22.51a.93.93,0,0,1-.87-.61L14.25,9.39A.93.93,0,0,1,16,8.74l4.68,12.52a.93.93,0,0,1-.87,1.26Z" />
            <path class="cls-1" d="M31.59,5.89h-8a.93.93,0,1,1,0-1.86h8a.93.93,0,1,1,0,1.86Z" />
        </g>
    </g>
</svg>