<svg xmlns="http://www.w3.org/2000/svg" viewBox="0 0 50 54.18"><defs><style>.cls-1{fill:#414042;}</style></defs><title>assessment_result_Asset 6</title><g id="Layer_2" data-name="Layer 2"><g id="Layer_1-2" data-name="Layer 1"><path class="cls-1" d="M34.84,4.35H30.34V7.72h3.14a.86.86,0,0,1,.86.86v40.5a.86.86,0,0,1-.86.86H4.24a.86.86,0,0,1-.86-.86V8.58a.86.86,0,0,1,.86-.86H7.37V4.35H2.86A2.86,2.86,0,0,0,0,7.21V50.45a2.86,2.86,0,0,0,2.86,2.86h32a2.86,2.86,0,0,0,2.86-2.86V7.21A2.86,2.86,0,0,0,34.84,4.35Z"/><path class="cls-1" d="M9.95,9H27.76a.86.86,0,0,0,.86-.86V2.58A2.58,2.58,0,0,0,26,0H11.67A2.59,2.59,0,0,0,9.09,2.58V8.12A.86.86,0,0,0,9.95,9Zm2.52-5.6H25.24V5.6H12.47Z"/><path class="cls-1" d="M7.16,21.05a.94.94,0,0,0,.94.94h5a.94.94,0,0,0,.94-.94V16.65a.94.94,0,0,0-.94-.94h-5a.94.94,0,0,0-.94.94Z"/><path class="cls-1" d="M14,26.28a.94.94,0,0,0-.94-.94h-5a.94.94,0,0,0-.94.94v4.41a.94.94,0,0,0,.94.94h5a.94.94,0,0,0,.94-.94Z"/><path class="cls-1" d="M13.08,35.68h-5a.94.94,0,0,0-.94.94V41a.94.94,0,0,0,.94.94h5A.94.94,0,0,0,14,41V36.62A.94.94,0,0,0,13.08,35.68Z"/><path class="cls-1" d="M30.13,16.11H17.75a.86.86,0,1,0,0,1.72H30.13a.86.86,0,0,0,0-1.72Z"/><path class="cls-1" d="M17.75,21.58H25.9a.86.86,0,1,0,0-1.72H17.75a.86.86,0,0,0,0,1.72Z"/><path class="cls-1" d="M30.13,25.75H17.75a.86.86,0,1,0,0,1.72H30.13a.86.86,0,0,0,0-1.72Z"/><path class="cls-1" d="M17.75,31.22H25.9a.86.86,0,1,0,0-1.72H17.75a.86.86,0,0,0,0,1.72Z"/><path class="cls-1" d="M31,36.95a.86.86,0,0,0-.86-.86H17.75a.86.86,0,1,0,0,1.72H30.13A.86.86,0,0,0,31,36.95Z"/><path class="cls-1" d="M17.75,39.84a.86.86,0,1,0,0,1.72H25.9a.86.86,0,1,0,0-1.72Z"/><path class="cls-1" d="M50,17.46a4.33,4.33,0,1,0-8.65,0v2.89H50Z"/><rect class="cls-1" x="41.35" y="22" width="8.65" height="24.69"/><path class="cls-1" d="M41.34,48.4,45,53.8a.86.86,0,0,0,1.43,0L50,48.4Z"/></g></g></svg>