<svg xmlns="http://www.w3.org/2000/svg" viewBox="0 0 50 46.51"><defs><style>.cls-1{fill:#414042;}</style></defs><title>achievement_Asset 11</title><g id="Layer_2" data-name="Layer 2"><g id="Layer_1-2" data-name="Layer 1"><circle class="cls-1" cx="25" cy="11.63" r="2.91"/><path class="cls-1" d="M25,0A14.46,14.46,0,0,0,10.47,14.39c0,7.95,14.53,24,14.53,24s14.53-16,14.53-24A14.46,14.46,0,0,0,25,0Zm0,16.28a4.65,4.65,0,1,1,4.65-4.65A4.65,4.65,0,0,1,25,16.28Z"/><path class="cls-1" d="M40.7,30.81h-7.3c-3.24,4.42-6.4,8-7.1,8.73L25,41l-1.29-1.43c-.7-.77-3.86-4.31-7.1-8.73H9.3L0,46.51H50Z"/></g></g></svg>