<svg xmlns="http://www.w3.org/2000/svg" viewBox="0 0 50 60.29"><defs><style>.cls-1{fill:#414042;}</style></defs><title>co-curricular_Asset 15</title><g id="Layer_2" data-name="Layer 2"><g id="Layer_1-2" data-name="Layer 1"><path class="cls-1" d="M8.82,9.56V60.29H50V9.56ZM24.27,50.73a5.15,5.15,0,1,1,5.15-5.15A5.15,5.15,0,0,1,24.27,50.73ZM35.66,50a1.1,1.1,0,1,1-2.21,0V46.32a1.1,1.1,0,1,1,2.21,0Zm4.41,0a1.1,1.1,0,1,1-2.21,0V41.18a1.1,1.1,0,1,1,2.21,0ZM39,30.51H19.85a1.1,1.1,0,0,1,0-2.21H39a1.1,1.1,0,0,1,0,2.21Zm0-7.35H19.85a1.1,1.1,0,0,1,0-2.21H39a1.1,1.1,0,0,1,0,2.21Z"/><polygon class="cls-1" points="6.62 9.56 6.62 7.35 8.82 7.35 41.18 7.35 41.18 0 0 0 0 50.73 6.62 50.73 6.62 9.56"/></g></g></svg>