<svg xmlns="http://www.w3.org/2000/svg" viewBox="0 0 50 50"><defs><style>.cls-1{fill:#424242;}</style></defs><title>community_service_Asset 5</title><g id="Layer_2" data-name="Layer 2"><g id="Layer_1-2" data-name="Layer 1"><path class="cls-1" d="M49.07,27.78a.93.93,0,0,0-.93.93v6.48a.93.93,0,0,1-1.85,0V25.93a.93.93,0,1,0-1.85,0v9.26a.93.93,0,0,1-1.85,0V24.07a.93.93,0,0,0-1.85,0V35.19a.93.93,0,0,1-1.85,0V26.85a.93.93,0,0,0-1.85,0v13c0,2.93-2.87-1.85-4.83-4.29a.93.93,0,0,0-1.65.58.89.89,0,0,0,.12.46l0,0,4.65,7.29a9.66,9.66,0,0,0,1.31,1.63A7.57,7.57,0,0,1,38.83,50h9.31v-.75A11.5,11.5,0,0,1,49,45l.36-.88A9.67,9.67,0,0,0,50,40.57V28.7A.93.93,0,0,0,49.07,27.78Z"/><path class="cls-1" d="M45,1,44.13.68A9.62,9.62,0,0,0,40.57,0H28.7a.93.93,0,0,0,0,1.85h6.48a.93.93,0,0,1,0,1.85H25.93a.93.93,0,1,0,0,1.85h9.26a.93.93,0,0,1,0,1.85H24.07a.93.93,0,0,0,0,1.85H35.19a.93.93,0,0,1,0,1.85H26.85a.93.93,0,0,0,0,1.85h13c2.91,0-1.79,2.82-4.28,4.83l-.06,0a.94.94,0,0,0-.29.68.93.93,0,0,0,.93.93.89.89,0,0,0,.46-.12l0,0,7.29-4.64a9.79,9.79,0,0,0,1.63-1.31A7.58,7.58,0,0,1,50,11.17V1.85h-.75A11.5,11.5,0,0,1,45,1Z"/><path class="cls-1" d="M5.87,49.32A9.62,9.62,0,0,0,9.43,50H21.3a.93.93,0,0,0,0-1.85H14.81a.93.93,0,0,1,0-1.85h9.26a.93.93,0,1,0,0-1.85H14.81a.93.93,0,0,1,0-1.85H25.93a.93.93,0,0,0,0-1.85H14.81a.93.93,0,0,1,0-1.85h8.33a.93.93,0,0,0,0-1.85h-13a.93.93,0,0,1-.93-.93s3.75-2.73,5.2-3.9l.06,0a.94.94,0,0,0,.29-.68.93.93,0,0,0-.93-.93.89.89,0,0,0-.46.12l0,0L6.1,35.35a9.71,9.71,0,0,0-1.63,1.31A7.58,7.58,0,0,1,0,38.83v9.31H.75A11.5,11.5,0,0,1,5,49Z"/><path class="cls-1" d="M17.8,14.47a.93.93,0,0,0,1.65-.58.89.89,0,0,0-.12-.46l0,0L14.65,6.1a9.66,9.66,0,0,0-1.31-1.63A7.57,7.57,0,0,1,11.17,0H1.85V.75A11.5,11.5,0,0,1,1,5l-.36.88A9.67,9.67,0,0,0,0,9.43V21.3a.93.93,0,0,0,1.85,0V14.81a.93.93,0,0,1,1.85,0v9.26a.93.93,0,1,0,1.85,0V14.81a.93.93,0,0,1,1.85,0V25.93a.93.93,0,0,0,1.85,0V14.81a.93.93,0,0,1,1.85,0v8.33a.93.93,0,0,0,1.85,0v-13C13,7.28,15.78,12,17.8,14.47Z"/><path class="cls-1" d="M17.59,23.28c0,2.67,3,6.6,7.41,9.13,4.39-2.53,7.41-6.45,7.41-9.13,0-2.41-1.62-3.83-3.29-3.83-2,0-3.53,2.26-4.12,4.13-.59-1.87-2.1-4.13-4.11-4.13C19.21,19.44,17.59,20.87,17.59,23.28Z"/></g></g></svg>