<svg xmlns="http://www.w3.org/2000/svg" viewBox="0 0 50 55.22"><defs><style>.cls-1{fill:#414042;}</style></defs><title>course_Asset 4</title><g id="Layer_2" data-name="Layer 2"><g id="Layer_1-2" data-name="Layer 1"><path class="cls-1" d="M3.43,55.22H7.3v-12h10v12h3.87V39.93l2.36.17L22.32,50.47a4,4,0,0,0,4,4.51H27.7a4,4,0,0,0,1.69-.37v.62h17.9V51.34H43.5V23.52L50,21.94l-.91-3.77L36,21.35a2.91,2.91,0,0,0-1.66-4.94l-2.49-2.53A1.29,1.29,0,1,0,30,15.7l1.13,1.15-5.19,1-6.21-5.24a2.89,2.89,0,0,0-1-.55,4,4,0,0,0-5.47,3.06L9.86,34.64a4,4,0,0,0,3.67,4.72H7L3.8,22.44,0,23.16,3.43,41.5Zm21.69-31.4a2.89,2.89,0,0,0,.52,0l1.47-.27-4.54,1.1.91,3.77,16.15-3.93V51.34H31.71c0-.13,0-.27,0-.4a4,4,0,0,0-1-2.7L32,36.85a4,4,0,0,0-3.71-4.5l-9.75-.72,1.88-10.86,2.81,2.37A2.9,2.9,0,0,0,25.12,23.82Z"/><ellipse class="cls-1" cx="23.02" cy="5.82" rx="5.8" ry="5.82"/></g></g></svg>