<svg xmlns="http://www.w3.org/2000/svg" viewBox="0 0 50 50"><defs><style>.cls-1{fill:#414042;}</style></defs><title>diplomaAsset 8</title><g id="Layer_2" data-name="Layer 2"><g id="Layer_1-2" data-name="Layer 1"><path class="cls-1" d="M12,50c-2,0-4.6-1.15-7.72-4.27a15.27,15.27,0,0,1-4-5.91,4.53,4.53,0,0,1,.85-4.74c1.82-1.82,5.58-2,10.65,3.11S16.73,47,14.91,48.85A4,4,0,0,1,12,50Z"/><path class="cls-1" d="M31.7,20.54a6.7,6.7,0,1,0,6.7,6.7A6.7,6.7,0,0,0,31.7,20.54Z"/><path class="cls-1" d="M28.57,35.11v.08l.06-.06Z"/><path class="cls-1" d="M31.7,35.72a8.43,8.43,0,0,1-4.91-1.58v9.13l4.91-2.5,4.91,2.51V34.14A8.43,8.43,0,0,1,31.7,35.72Z"/><path class="cls-1" d="M22.51,27.48C20.18,25.15,18,23.76,16,23.34a4.37,4.37,0,0,0-4.06,1L4.1,32.14c2.43,0,5.48,1.31,9,4.79s4.79,6.55,4.79,9L25,38.77V32.43a8.42,8.42,0,0,1-1.71-4.13C23,28,22.78,27.75,22.51,27.48Z"/><path class="cls-1" d="M31.44,18.55c-2.33-2.33-4.54-3.73-6.54-4.14a4.36,4.36,0,0,0-4.08,1l-6,6a7.6,7.6,0,0,1,1.53.16,15,15,0,0,1,7,4.22,8.48,8.48,0,0,1,8.29-7.05Z"/><path class="cls-1" d="M43.2,20.54l6.29-6.48a4.91,4.91,0,0,0,.22-3.9,15.34,15.34,0,0,0-4-5.9C40.65-.81,36.9-.67,35.08,1.15L23.73,12.51a7.63,7.63,0,0,1,1.53.16c2.36.49,4.86,2,7.45,4.63a25.34,25.34,0,0,1,1.75,1.93,8.49,8.49,0,0,1,2.42,1.32Z"/><path class="cls-1" d="M47.74,22.33H38.61a8.45,8.45,0,0,1,0,9.82h9.13l-2.41-4.91Z"/></g></g></svg>