<svg xmlns="http://www.w3.org/2000/svg" viewBox="0 0 50 50"><defs><style>.cls-1{fill:#414042;}</style></defs><title>membership_Asset 13</title><g id="Layer_2" data-name="Layer 2"><g id="Layer_1-2" data-name="Layer 1"><path class="cls-1" d="M27,17.06a5.23,5.23,0,1,0-3.93,0,9.89,9.89,0,0,0-7.92,9.69H34.88A9.89,9.89,0,0,0,27,17.06Z"/><path class="cls-1" d="M44.19,30.81a5.78,5.78,0,0,0-3.59,1.25l-2.16-2a18,18,0,1,0-26.87,0l-2.16,2a5.8,5.8,0,1,0,1.2,1.27l2.19-2.05A18,18,0,0,0,24.13,36v2.42a5.81,5.81,0,1,0,1.74,0V36a18,18,0,0,0,11.34-4.75l2.19,2.05a5.81,5.81,0,1,0,4.79-2.52ZM25,34.3A16.28,16.28,0,1,1,41.28,18,16.3,16.3,0,0,1,25,34.3Z"/></g></g></svg>