<?xml version='1.0' encoding='UTF-8'?>
<svg viewBox="0 -2 32 32" xmlns="http://www.w3.org/2000/svg" xmlns:xlink="http://www.w3.org/1999/xlink">
  <g id="Layer_1" transform="translate(-4, -2)" style="enable-background:new 0 0 32 32">
    <g id="Report">
      <path d="M27, 4L24, 4L24, 26L8, 26L8, 4L5, 4C4.4, 4 4, 4.4 4, 5L4, 29C4, 29.6 4.4, 30 5, 30L27, 30C27.6, 30 28, 29.6 28, 29L28, 5C28, 4.4 27.6, 4 27, 4z" fill="#414042" class="Yellow" />
    </g>
  </g>
  <g id="Layer_1" transform="translate(-4, -2)" style="enable-background:new 0 0 32 32">
    <g id="Report">
      <path d="M20, 4L20, 3C20, 2.4 19.6, 2 19, 2L13, 2C12.4, 2 12, 2.4 12, 3L12, 4L10, 4L10, 8L13, 8L19, 8L22, 8L22, 4L20, 4z" fill="#414042" class="Black" />
    </g>
  </g>
  <g id="Layer_1" transform="translate(-4, -2)" style="enable-background:new 0 0 32 32">
    <g id="Report">
      <g class="st0">
        <rect x="10" y="20" width="12" height="2" rx="0" ry="0" fill="#414042" class="Black" />
      </g>
    </g>
  </g>
  <g id="Layer_1" transform="translate(-4, -2)" style="enable-background:new 0 0 32 32">
    <g id="Report">
      <g class="st0">
        <rect x="10" y="12" width="12" height="2" rx="0" ry="0" fill="#414042" class="Black" />
      </g>
    </g>
  </g>
  <g id="Layer_1" transform="translate(-4, -2)" style="enable-background:new 0 0 32 32">
    <g id="Report">
      <g class="st0">
        <rect x="10" y="16" width="12" height="2" rx="0" ry="0" fill="#414042" class="Black" />
      </g>
    </g>
  </g>
  <g id="Layer_1" transform="translate(16, 2)" style="enable-background:new 0 0 16 16">
    <g id="Edit_1_">
      <polygon points="0,16 4,16 0,12  " fill="#414042" class="Blue" />
    </g>
  </g>
  <g id="Layer_1" transform="translate(16, 2)" style="enable-background:new 0 0 16 16">
    <g id="Edit_1_">
      <rect x="1.9" y="6.5" width="9.5" height="5.6" rx="0" ry="0" fill="#414042" class="Blue" transform="matrix(0.7071, -0.7071, 0.7071, 0.7071, -4.6432, 7.4493)" />
    </g>
  </g>
  <g id="Layer_1" transform="translate(16, 2)" style="enable-background:new 0 0 16 16">
    <g id="Edit_1_">
      <path d="M15.6, 2.5L13.5, 0.4C13, -0.1 12.1, -0.1 11.6, 0.4L9.4, 2.7L13.4, 6.7L15.7, 4.4C16.1, 3.9 16.1, 3 15.6, 2.5z" fill="#414042" class="Blue" />
    </g>
  </g>
  <g id="Layer_1" transform="translate(16, 2)" style="enable-background:new 0 0 16 16">
    <g id="Edit_1_">
      <rect x="1.7" y="10.5" width="1.9" height="5.6" rx="0" ry="0" fill="#FFFFFF" class="White" transform="matrix(0.7071, -0.7071, 0.7071, 0.7071, -8.6546, 5.7876)" />
    </g>
  </g>
  <g id="Layer_1" transform="translate(16, 2)" style="enable-background:new 0 0 16 16">
    <g id="Edit_1_">
      <rect x="9.7" y="2.5" width="1.9" height="5.6" rx="0" ry="0" fill="#FFFFFF" class="White" transform="matrix(0.7071, -0.7071, 0.7071, 0.7071, -0.6318, 9.1109)" />
    </g>
  </g>
</svg>