<svg xmlns="http://www.w3.org/2000/svg" viewBox="0 0 50 43.18"><defs><style>.cls-1{fill:#414042;}</style></defs><title>award_Asset 10</title><g id="Layer_2" data-name="Layer 2"><g id="Layer_1-2" data-name="Layer 1"><path class="cls-1" d="M40.65,5.4,41.2,0H8.26l.54,5.4H0v5.18a12.62,12.62,0,0,0,1.74,6.76,11.18,11.18,0,0,0,3.11,3.27,18.11,18.11,0,0,0,6.08,2.62l.31.07A14.67,14.67,0,0,0,22.88,31.7s0,.08,0,.11a9.66,9.66,0,0,1-9.66,9.66h0v1.7H35.94v-1.7a9.66,9.66,0,0,1-9.65-9.66s0-.06,0-.08a14.68,14.68,0,0,0,11.83-8.29,20.92,20.92,0,0,0,5.77-2,11.68,11.68,0,0,0,4.36-4.05A12.62,12.62,0,0,0,50,10.58V5.4ZM6.93,19.9a10,10,0,0,1-3.74-3.46A10.91,10.91,0,0,1,1.7,10.58V7.1H9l1,10.51a13.77,13.77,0,0,0,.52,3.74A17,17,0,0,1,6.93,19.9Zm21.4-.9-3.61-2-3.61,2,.83-4.06-3.07-2.8L23,11.68,24.72,7.9l1.71,3.78,4.12.46-3.07,2.8Zm20-8.43a10.91,10.91,0,0,1-1.49,5.87,9.47,9.47,0,0,1-2.64,2.77,16.22,16.22,0,0,1-5.31,2.31,13.75,13.75,0,0,0,.57-3.91L40.48,7.1H48.3Z"/></g></g></svg>