<svg xmlns="http://www.w3.org/2000/svg" viewBox="0 0 50 47.87"><defs><style>.cls-1{fill:#414042;}</style></defs><title>certificate_Asset 2</title><g id="Layer_2" data-name="Layer 2"><g id="Layer_1-2" data-name="Layer 1"><ellipse class="cls-1" cx="25" cy="30.78" rx="3.57" ry="3.42"/><path class="cls-1" d="M25,22.23a8.76,8.76,0,0,0-8.93,8.55A8.76,8.76,0,0,0,25,39.32a8.76,8.76,0,0,0,8.93-8.55A8.76,8.76,0,0,0,25,22.23ZM25,35.9a5.13,5.13,0,1,1,5.36-5.13A5.25,5.25,0,0,1,25,35.9Z"/><path class="cls-1" d="M14.89,34.15l-5,8.13a.82.82,0,0,0,0,.91.91.91,0,0,0,.87.37l4.95-.7,1.8,4.47a.89.89,0,0,0,.76.54h.07a.9.9,0,0,0,.77-.42l4-6.57A10.62,10.62,0,0,1,14.89,34.15Z"/><path class="cls-1" d="M44.64,5.13H5.36V27.36h9.55a10.86,10.86,0,0,1,20.18,0h9.55ZM31.25,15.39H18.75a.86.86,0,1,1,0-1.71h12.5a.86.86,0,1,1,0,1.71ZM33,12H17a.86.86,0,1,1,0-1.71H33A.86.86,0,1,1,33,12Z"/><path class="cls-1" d="M49.11,0H.89A.87.87,0,0,0,0,.85V31.63a.87.87,0,0,0,.89.85H14.45a9.14,9.14,0,0,1,0-3.42h-10a.87.87,0,0,1-.89-.85V4.27a.87.87,0,0,1,.89-.85H45.54a.87.87,0,0,1,.89.85V28.21a.87.87,0,0,1-.89.85h-10a9.14,9.14,0,0,1,0,3.42H49.11a.87.87,0,0,0,.89-.85V.85A.87.87,0,0,0,49.11,0Z"/><path class="cls-1" d="M40.41,42.28,35.24,33.8a10.59,10.59,0,0,1-8.12,7l4,6.62a.9.9,0,0,0,.77.42H32a.89.89,0,0,0,.76-.55l1.8-4.47,4.95.7a.9.9,0,0,0,.87-.37A.82.82,0,0,0,40.41,42.28Z"/></g></g></svg>