<svg xmlns="http://www.w3.org/2000/svg" viewBox="0 0 50 47.56"><defs><style>.cls-1{fill:#414042;}</style></defs><title>certification_Asset 12</title><g id="Layer_2" data-name="Layer 2"><g id="Layer_1-2" data-name="Layer 1"><path class="cls-1" d="M44.14,30,50,23.76l-5.87-6.21,1.09-8.48L36.81,7.5,32.71,0,25,3.66,17.26,0l-4.09,7.5L4.76,9.1l1.1,8.48L0,23.79,5.87,30,4.78,38.48l8.4,1.58,4.1,7.5L25,43.9l7.73,3.65L36.83,40l8.4-1.59-.11-.82ZM25,39.8a16,16,0,1,1,16-16A16,16,0,0,1,25,39.8Z"/><path class="cls-1" d="M25,9.5A14.28,14.28,0,1,0,39.28,23.78,14.29,14.29,0,0,0,25,9.5Zm5.93,11.12-6.11,7.52-4.6-3.83A.87.87,0,0,1,21.34,23l3.24,2.7,5-6.14a.87.87,0,0,1,1.36,1.1Z"/></g></g></svg>