<svg xmlns="http://www.w3.org/2000/svg" viewBox="0 0 50 51.85"><defs><style>.cls-1{fill:#414042;}</style></defs><title>competency_Asset 7</title><g id="Layer_2" data-name="Layer 2"><g id="Layer_1-2" data-name="Layer 1"><path class="cls-1" d="M24.07,5.56a5.56,5.56,0,1,0-5.56,5.56V13a7.42,7.42,0,0,1-7.41-7.41,7.41,7.41,0,0,0,0,14.81A8,8,0,0,0,13,20.14V22a8.24,8.24,0,0,1-1.85.18,9.25,9.25,0,0,1-7.81-4.3,7.4,7.4,0,1,0,10.53,9.85l1.92.34a9.4,9.4,0,0,1-8.34,5.22A9.21,9.21,0,0,1,5.09,33a6.48,6.48,0,1,0,11.57,4h1.85a8.34,8.34,0,0,1-6.44,8.11,6,6,0,1,0,12,.69Z"/><path class="cls-1" d="M25.93,5.56a5.56,5.56,0,1,1,5.56,5.56V13a7.42,7.42,0,0,0,7.41-7.41,7.41,7.41,0,1,1,0,14.81A8,8,0,0,1,37,20.14V22a8.24,8.24,0,0,0,1.85.18,9.25,9.25,0,0,0,7.81-4.3,7.4,7.4,0,1,1-10.53,9.85l-1.92.34a9.4,9.4,0,0,0,8.34,5.22,9.21,9.21,0,0,0,2.31-.3,6.48,6.48,0,1,1-11.57,4H31.48a8.34,8.34,0,0,0,6.44,8.11,6,6,0,1,1-12,.69Z"/></g></g></svg>