<svg xmlns="http://www.w3.org/2000/svg" viewBox="0 0 50 45.31"><defs><style>.cls-1{fill:#424143;}</style></defs><title>degree_Asset 3</title><g id="Layer_2" data-name="Layer 2"><g id="Layer_1-2" data-name="Layer 1"><path class="cls-1" d="M45.31,28.13a7.81,7.81,0,1,0-7.81,7.81A7.82,7.82,0,0,0,45.31,28.13Zm-14.06,0a6.25,6.25,0,1,1,6.25,6.25A6.26,6.26,0,0,1,31.25,28.13Z"/><circle class="cls-1" cx="37.5" cy="28.13" r="4.69"/><path class="cls-1" d="M49.22,0H.78A.78.78,0,0,0,0,.78V39.84a.78.78,0,0,0,.78.78h32V37.5H8.59a.78.78,0,0,1-.78-.78,3.91,3.91,0,0,0-3.91-3.91A.78.78,0,0,1,3.13,32V8.59a.78.78,0,0,1,.78-.78A3.91,3.91,0,0,0,7.81,3.91a.78.78,0,0,1,.78-.78H41.41a.78.78,0,0,1,.78.78,3.91,3.91,0,0,0,3.91,3.91.78.78,0,0,1,.78.78V28.13a9.37,9.37,0,0,1-4.69,8.11v4.39h7a.78.78,0,0,0,.78-.78V.78A.78.78,0,0,0,49.22,0Z"/><path class="cls-1" d="M28.13,28.13A9.37,9.37,0,0,1,45.31,23V9.32a5.48,5.48,0,0,1-4.63-4.63H9.32A5.48,5.48,0,0,1,4.69,9.32v22a5.48,5.48,0,0,1,4.63,4.63h23A9.37,9.37,0,0,1,28.13,28.13Zm5.47-12.5H16.41a.78.78,0,0,1,0-1.56H33.59a.78.78,0,0,1,0,1.56ZM16.41,7.81H33.59a.78.78,0,0,1,0,1.56H16.41a.78.78,0,0,1,0-1.56Zm-4.69,3.13H38.28a.78.78,0,0,1,0,1.56H11.72a.78.78,0,0,1,0-1.56Zm0,18.75h3.13a.78.78,0,0,1,0,1.56H11.72a.78.78,0,0,1,0-1.56ZM18,34.38H11.72a.78.78,0,0,1,0-1.56H18a.78.78,0,0,1,0,1.56Z"/><path class="cls-1" d="M34.38,37v7.58a.78.78,0,0,0,1.33.55l1.79-1.79,1.79,1.79a.78.78,0,0,0,.55.23.77.77,0,0,0,.3-.06.78.78,0,0,0,.48-.72V37a9.2,9.2,0,0,1-6.25,0Z"/></g></g></svg>