<svg xmlns="http://www.w3.org/2000/svg" viewBox="0 0 50 50"><defs><style>.cls-1{fill:#424242;}</style></defs><title>fieldwork_Asset 14</title><g id="Layer_2" data-name="Layer 2"><g id="Layer_1-2" data-name="Layer 1"><path class="cls-1" d="M11.8,50c.89-1.35,3.66-5,7.38-5a39.94,39.94,0,0,1,6.37.94A45,45,0,0,0,32.85,47c1.8,0,7.7-2.91,11.1-4.81l6-7.1c-.44-.2-1-.15-2,.36a27,27,0,0,0-3.13,2.16C43.16,38.91,42,39.77,41,39.93c-1.22.79-6.42,4-9.12,4-2.17,0-7.53-1.85-8.13-2.06a1,1,0,0,1-.61-1.27A1,1,0,0,1,24.37,40c1.55.54,5.93,2,7.5,2s5.1-1.87,7.46-3.34a2,2,0,0,0-1.6-.67,30,30,0,0,0-5.61,1,1,1,0,0,1-.68-.07l-5.86-3a1,1,0,0,1-.28-.22s-3.38-3.69-8.07-3.69c-5.3,0-10.85,8.49-10.91,8.58a1,1,0,0,1-.25.26L0,45.22C1.14,46.73,4.49,50.09,11.8,50Z"/><path class="cls-1" d="M44.41,33.5l-1.72,3.27L43.74,36a33.16,33.16,0,0,1,3-2.07l.57-2.9C46.09,31.17,45.54,31.75,44.41,33.5Z"/><path class="cls-1" d="M34,32A16,16,0,0,0,47.53,7.47,16,16,0,1,0,20.47,24.53,15.9,15.9,0,0,0,34,32ZM44.72,7H41.46a15.22,15.22,0,0,0-2.12-3.95A13.88,13.88,0,0,1,44.72,7ZM23.28,25h3.25a15.22,15.22,0,0,0,2.12,3.95A13.88,13.88,0,0,1,23.28,25ZM27,17h6v6H28A24,24,0,0,1,27,17Zm1-8h5v6H27A24,24,0,0,1,28,9Zm13,6H35V9h5A24,24,0,0,1,41,15Zm-1,8H35V17h6A24,24,0,0,1,40,23Zm-7,2v4.83c-1.65-.51-3.2-2.23-4.31-4.83Zm2,4.83V25h4.31C38.2,27.59,36.65,29.32,35,29.83ZM35,7V2.17c1.65.51,3.2,2.23,4.31,4.83ZM33,2.17V7H28.69C29.8,4.41,31.35,2.68,33,2.17Zm6.34,26.78A15.27,15.27,0,0,0,41.46,25h3.25A13.87,13.87,0,0,1,39.34,28.95ZM46.11,23h-4A26.42,26.42,0,0,0,43,17h5A13.87,13.87,0,0,1,46.11,23ZM43,15a26.45,26.45,0,0,0-.87-6h4A13.86,13.86,0,0,1,48,15ZM28.66,3.05A15.27,15.27,0,0,0,26.54,7H23.28A13.87,13.87,0,0,1,28.66,3.05ZM21.89,9h4A26.42,26.42,0,0,0,25,15H20A13.87,13.87,0,0,1,21.89,9ZM25,17a26.45,26.45,0,0,0,.87,6h-4A13.86,13.86,0,0,1,20,17Z"/></g></g></svg>