<svg xmlns="http://www.w3.org/2000/svg" viewBox="0 0 55 47.71"><defs><style>.cls-1{fill:#4d4d4d;}</style></defs><title>license_Asset 9</title><g id="Layer_2" data-name="Layer 2"><g id="Layer_1-2" data-name="Layer 1"><path class="cls-1" d="M54.5,7H37.83v3.93a1,1,0,0,1-1,1H18.17a1,1,0,0,1-1-1V7H.5a.5.5,0,0,0-.5.5V47.21a.5.5,0,0,0,.5.5h54a.5.5,0,0,0,.5-.5V7.5A.5.5,0,0,0,54.5,7ZM23.92,17.89H45.23a.5.5,0,0,1,0,1H23.92a.5.5,0,0,1,0-1Zm0,5.88H45.23a.5.5,0,0,1,0,1H23.92a.5.5,0,0,1,0-1Zm-4.2,17.88H6.23V32c0-3.95,2.12-7.22,4.83-7.7a4.59,4.59,0,1,1,3.83,0c2.71.47,4.83,3.75,4.83,7.7Zm17.1-4.79H23.92a.5.5,0,0,1,0-1h12.9a.5.5,0,0,1,0,1Zm0-6H23.92a.5.5,0,0,1,0-1h12.9a.5.5,0,0,1,0,1ZM45.4,41.65a3.7,3.7,0,0,1-3.9-3.46c0-1.91,3.9-7.87,3.9-7.87s3.9,6,3.9,7.87A3.7,3.7,0,0,1,45.4,41.65Z"/><path class="cls-1" d="M18.17,10.92H36.83V3.44H29.58a2.35,2.35,0,1,0-4.15,0H18.17Z"/></g></g></svg>